# 3ds Max Wavefront OBJ Exporter v0.97b - (c)2007 guruware
# File Created: 12.02.2018 15:31:05

mtllib cacciavite.mtl

#
# object cacciavite
#

v  0.0500 0.0000 -0.0535
v  0.0771 0.0000 -0.4059
v  0.0545 0.0545 -0.4059
v  0.0354 0.0354 -0.0535
v  -0.0000 0.0771 -0.4059
v  -0.0000 0.0500 -0.0535
v  -0.0545 0.0545 -0.4059
v  -0.0354 0.0354 -0.0535
v  -0.0771 0.0000 -0.4059
v  -0.0500 0.0000 -0.0535
v  -0.0545 -0.0545 -0.4059
v  -0.0354 -0.0354 -0.0535
v  -0.0000 -0.0771 -0.4059
v  -0.0000 -0.0500 -0.0535
v  0.0545 -0.0545 -0.4059
v  0.0354 -0.0354 -0.0535
v  0.0712 0.0000 -0.4354
v  0.0504 0.0504 -0.4354
v  -0.0000 0.0712 -0.4354
v  -0.0504 0.0504 -0.4354
v  -0.0712 0.0000 -0.4354
v  -0.0504 -0.0504 -0.4354
v  -0.0000 -0.0712 -0.4354
v  0.0504 -0.0504 -0.4354
v  0.0545 0.0000 -0.4604
v  0.0385 0.0385 -0.4604
v  -0.0000 0.0545 -0.4604
v  -0.0385 0.0385 -0.4604
v  -0.0545 0.0000 -0.4604
v  -0.0385 -0.0385 -0.4604
v  -0.0000 -0.0545 -0.4604
v  0.0385 -0.0385 -0.4604
v  0.0295 0.0000 -0.4771
v  0.0209 0.0209 -0.4771
v  -0.0000 0.0295 -0.4771
v  -0.0209 0.0209 -0.4771
v  -0.0295 0.0000 -0.4771
v  -0.0209 -0.0209 -0.4771
v  -0.0000 -0.0295 -0.4771
v  0.0209 -0.0209 -0.4771
v  -0.0000 0.0000 -0.4771
v  0.0225 0.0225 -0.0357
v  0.0318 0.0000 -0.0357
v  -0.0000 0.0318 -0.0357
v  -0.0225 0.0225 -0.0357
v  -0.0318 0.0000 -0.0357
v  -0.0225 -0.0225 -0.0357
v  -0.0000 -0.0318 -0.0357
v  0.0225 -0.0225 -0.0357
v  0.0288 0.0288 -0.0168
v  0.0408 0.0000 -0.0168
v  -0.0000 0.0408 -0.0168
v  -0.0288 0.0288 -0.0168
v  -0.0408 0.0000 -0.0168
v  -0.0288 -0.0288 -0.0168
v  -0.0000 -0.0408 -0.0168
v  0.0288 -0.0288 -0.0168
v  0.0288 0.0288 -0.0053
v  0.0408 0.0000 -0.0053
v  -0.0000 0.0408 -0.0053
v  -0.0288 0.0288 -0.0053
v  -0.0408 0.0000 -0.0053
v  -0.0288 -0.0288 -0.0053
v  -0.0000 -0.0408 -0.0053
v  0.0288 -0.0288 -0.0053
v  -0.0000 0.0000 -0.0053
v  0.0200 0.0000 -0.0053
v  0.0100 0.0173 -0.0053
v  0.0100 0.0173 0.2596
v  0.0200 0.0000 0.2596
v  -0.0100 0.0173 -0.0053
v  -0.0100 0.0173 0.2596
v  -0.0200 0.0000 -0.0053
v  -0.0200 0.0000 0.2596
v  -0.0100 -0.0173 -0.0053
v  -0.0100 -0.0173 0.2596
v  0.0100 -0.0173 -0.0053
v  0.0100 -0.0173 0.2596
v  0.0096 0.0146 0.3468
v  0.0191 0.0000 0.3468
v  -0.0096 0.0146 0.3468
v  -0.0191 0.0000 0.3468
v  -0.0096 -0.0146 0.3468
v  0.0096 -0.0146 0.3468
v  0.0257 0.0131 0.3683
v  0.0413 0.0052 0.3683
v  -0.0257 0.0131 0.3683
v  -0.0413 0.0052 0.3683
v  -0.0257 -0.0131 0.3683
v  -0.0413 -0.0052 0.3683
v  0.0257 -0.0131 0.3683
v  0.0413 -0.0052 0.3683
v  0.0158 0.0112 0.4771
v  0.0253 0.0045 0.4771
v  -0.0158 0.0112 0.4771
v  -0.0253 0.0045 0.4771
v  -0.0158 -0.0112 0.4771
v  -0.0253 -0.0045 0.4771
v  0.0158 -0.0112 0.4771
v  0.0253 -0.0045 0.4771
# 100 vertices

vn 0.9195 0.0000 0.3932
vn 0.9983 0.0000 -0.0579
vn 0.7059 0.7059 -0.0579
vn 0.6502 0.6502 0.3932
vn -0.0000 0.9983 -0.0579
vn -0.0000 0.9195 0.3932
vn -0.7059 0.7059 -0.0579
vn -0.6502 0.6502 0.3932
vn -0.9983 -0.0000 -0.0579
vn -0.9195 -0.0000 0.3932
vn -0.7059 -0.7059 -0.0579
vn -0.6502 -0.6502 0.3932
vn 0.0000 -0.9983 -0.0579
vn 0.0000 -0.9195 0.3932
vn 0.7059 -0.7059 -0.0579
vn 0.6502 -0.6502 0.3932
vn 0.9303 0.0000 -0.3668
vn 0.6578 0.6578 -0.3668
vn -0.0000 0.9303 -0.3668
vn -0.6578 0.6578 -0.3668
vn -0.9303 -0.0000 -0.3668
vn -0.6578 -0.6578 -0.3668
vn 0.0000 -0.9303 -0.3668
vn 0.6578 -0.6578 -0.3668
vn 0.7296 -0.0000 -0.6838
vn 0.5159 0.5159 -0.6838
vn 0.0000 0.7296 -0.6838
vn -0.5159 0.5159 -0.6838
vn -0.7296 0.0000 -0.6839
vn -0.5159 -0.5159 -0.6838
vn 0.0000 -0.7296 -0.6838
vn 0.5159 -0.5159 -0.6838
vn 0.3536 -0.0000 -0.9354
vn 0.2500 0.2500 -0.9354
vn 0.0000 0.3536 -0.9354
vn -0.2500 0.2500 -0.9354
vn -0.3536 0.0000 -0.9354
vn -0.2500 -0.2500 -0.9354
vn 0.0000 -0.3536 -0.9354
vn 0.2500 -0.2500 -0.9354
vn 0.0000 0.0000 -1.0000
vn 0.6917 0.6917 0.2079
vn 0.9782 0.0000 0.2079
vn -0.0000 0.9782 0.2079
vn -0.6917 0.6917 0.2079
vn -0.9782 0.0000 0.2079
vn -0.6917 -0.6917 0.2079
vn -0.0000 -0.9782 0.2079
vn 0.6917 -0.6917 0.2079
vn 0.6916 0.6916 -0.2081
vn 0.9781 0.0000 -0.2081
vn 0.0000 0.9781 -0.2081
vn -0.6916 0.6916 -0.2081
vn -0.9781 0.0000 -0.2081
vn -0.6916 -0.6916 -0.2081
vn -0.0000 -0.9781 -0.2081
vn 0.6916 -0.6916 -0.2081
vn 0.5490 0.5490 0.6303
vn 0.7764 0.0000 0.6303
vn 0.0000 0.7764 0.6303
vn -0.5490 0.5490 0.6303
vn -0.7764 0.0000 0.6303
vn -0.5490 -0.5490 0.6303
vn -0.0000 -0.7764 0.6303
vn 0.5490 -0.5490 0.6303
vn 0.0000 0.0000 1.0000
vn 1.0000 0.0000 -0.0000
vn 0.5000 0.8660 -0.0000
vn 0.4984 0.8668 0.0149
vn 1.0000 0.0018 0.0079
vn -0.5000 0.8660 -0.0000
vn -0.4969 0.8677 0.0120
vn -1.0000 0.0000 -0.0000
vn -1.0000 -0.0018 0.0079
vn -0.5000 -0.8660 -0.0000
vn -0.4984 -0.8668 0.0149
vn 0.5000 -0.8660 -0.0000
vn 0.4969 -0.8677 0.0120
vn 0.4813 0.8762 0.0236
vn 0.9999 0.0042 0.0167
vn -0.4776 0.8781 0.0301
vn -0.9999 -0.0042 0.0167
vn -0.4813 -0.8762 0.0236
vn 0.4776 -0.8781 0.0301
vn 0.7542 -0.0000 -0.6567
vn 0.2919 0.9442 -0.1527
vn 0.3162 0.9314 -0.1805
vn 0.8340 0.4685 -0.2914
vn -0.2919 0.9442 -0.1527
vn -0.3189 0.9312 -0.1764
vn -0.7542 -0.0000 -0.6567
vn -0.8336 0.4714 -0.2880
vn -0.2919 -0.9442 -0.1527
vn -0.3162 -0.9314 -0.1805
vn -0.8340 -0.4685 -0.2914
vn 0.2919 -0.9442 -0.1527
vn 0.3189 -0.9312 -0.1764
vn 0.8336 -0.4714 -0.2880
vn 0.2099 0.7175 0.6642
vn 0.6561 0.3557 0.6656
vn -0.2160 0.7189 0.6607
vn -0.6569 0.3626 0.6610
vn -0.2099 -0.7175 0.6642
vn -0.6561 -0.3557 0.6656
vn 0.2160 -0.7189 0.6607
vn 0.6569 -0.3626 0.6610
# 106 vertex normals

vt 0.1467 0.6230 0.0500
vt 0.1467 0.6758 0.0771
vt 0.1558 0.6758 0.0771
vt 0.1558 0.6230 0.0500
vt 0.0833 0.6230 0.0500
vt 0.0833 0.6758 0.0771
vt 0.0924 0.6758 0.0771
vt 0.0924 0.6230 0.0500
vt 0.1014 0.6758 0.0771
vt 0.1014 0.6230 0.0500
vt 0.1105 0.6758 0.0771
vt 0.1105 0.6230 0.0500
vt 0.1195 0.6758 0.0771
vt 0.1195 0.6230 0.0500
vt 0.1286 0.6758 0.0771
vt 0.1286 0.6230 0.0500
vt 0.1377 0.6758 0.0771
vt 0.1377 0.6230 0.0500
vt 0.1467 0.6802 0.0712
vt 0.1558 0.6802 0.0712
vt 0.0833 0.6802 0.0712
vt 0.0924 0.6802 0.0712
vt 0.1014 0.6802 0.0712
vt 0.1105 0.6802 0.0712
vt 0.1195 0.6802 0.0712
vt 0.1286 0.6802 0.0712
vt 0.1377 0.6802 0.0712
vt 0.1786 0.6893 0.0000
vt 0.1761 0.6893 0.0000
vt 0.1738 0.6950 0.0000
vt 0.1755 0.6968 0.0000
vt 0.1680 0.6974 0.0000
vt 0.1680 0.6999 0.0000
vt 0.1622 0.6950 0.0000
vt 0.1605 0.6968 0.0000
vt 0.1598 0.6893 0.0000
vt 0.1573 0.6893 0.0000
vt 0.1622 0.6835 0.0000
vt 0.1605 0.6817 0.0000
vt 0.1680 0.6811 0.0000
vt 0.1680 0.6786 0.0000
vt 0.1738 0.6835 0.0000
vt 0.1755 0.6817 0.0000
vt 0.1724 0.6893 0.0000
vt 0.1711 0.6924 0.0000
vt 0.1680 0.6937 0.0000
vt 0.1649 0.6924 0.0000
vt 0.1636 0.6893 0.0000
vt 0.1649 0.6862 0.0000
vt 0.1680 0.6849 0.0000
vt 0.1711 0.6862 0.0000
vt 0.1680 0.6893 0.0000
vt 0.1403 0.6880 0.0500
vt 0.1462 0.6880 0.0500
vt 0.1462 0.6853 0.0318
vt 0.1403 0.6853 0.0318
vt 0.0992 0.6880 0.0500
vt 0.1051 0.6880 0.0500
vt 0.1051 0.6853 0.0318
vt 0.0992 0.6853 0.0318
vt 0.1110 0.6880 0.0500
vt 0.1110 0.6853 0.0318
vt 0.1168 0.6880 0.0500
vt 0.1168 0.6853 0.0318
vt 0.1227 0.6880 0.0500
vt 0.1227 0.6853 0.0318
vt 0.1286 0.6880 0.0500
vt 0.1286 0.6853 0.0318
vt 0.1345 0.6880 0.0500
vt 0.1345 0.6853 0.0318
vt 0.1462 0.6825 0.0408
vt 0.1403 0.6825 0.0408
vt 0.1051 0.6825 0.0408
vt 0.0992 0.6825 0.0408
vt 0.1110 0.6825 0.0408
vt 0.1168 0.6825 0.0408
vt 0.1227 0.6825 0.0408
vt 0.1286 0.6825 0.0408
vt 0.1345 0.6825 0.0408
vt 0.1462 0.6807 0.0408
vt 0.1403 0.6807 0.0408
vt 0.1051 0.6807 0.0408
vt 0.0992 0.6807 0.0408
vt 0.1110 0.6807 0.0408
vt 0.1168 0.6807 0.0408
vt 0.1227 0.6807 0.0408
vt 0.1286 0.6807 0.0408
vt 0.1345 0.6807 0.0408
vt 0.0923 0.6867 0.0000
vt 0.0923 0.6806 0.0000
vt 0.0966 0.6823 0.0000
vt 0.0984 0.6867 0.0000
vt 0.0862 0.6867 0.0000
vt 0.0880 0.6823 0.0000
vt 0.0966 0.6910 0.0000
vt 0.0923 0.6928 0.0000
vt 0.0880 0.6910 0.0000
vt 0.1726 0.6765 0.0200
vt 0.1757 0.6765 0.0200
vt 0.1757 0.6368 0.0200
vt 0.1726 0.6368 0.0200
vt 0.1569 0.6765 0.0200
vt 0.1601 0.6765 0.0200
vt 0.1601 0.6368 0.0200
vt 0.1569 0.6368 0.0200
vt 0.1632 0.6765 0.0200
vt 0.1632 0.6368 0.0200
vt 0.1663 0.6765 0.0200
vt 0.1663 0.6368 0.0200
vt 0.1695 0.6765 0.0200
vt 0.1695 0.6368 0.0200
vt 0.1756 0.6238 0.0174
vt 0.1726 0.6238 0.0191
vt 0.1602 0.6238 0.0174
vt 0.1568 0.6238 0.0174
vt 0.1632 0.6238 0.0191
vt 0.1662 0.6238 0.0174
vt 0.1696 0.6238 0.0174
vt 0.1548 0.7001 0.0000
vt 0.1534 0.7001 0.0000
vt 0.1558 0.6969 0.0000
vt 0.1581 0.6969 0.0000
vt 0.1505 0.7001 0.0000
vt 0.1481 0.6969 0.0000
vt 0.1491 0.7001 0.0000
vt 0.1458 0.6969 0.0000
vt 0.1543 0.6806 0.0000
vt 0.1557 0.6806 0.0000
vt 0.1496 0.6806 0.0000
vt 0.1482 0.6806 0.0000
vt 0.1592 0.6770 0.0000
vt 0.1559 0.6777 0.0000
vt 0.1592 0.6785 0.0000
vt 0.1755 0.6784 0.0000
vt 0.1755 0.6771 0.0000
vt 0.1493 0.7005 0.0000
vt 0.1540 0.7005 0.0000
vt 0.1540 0.7039 0.0000
vt 0.1493 0.7039 0.0000
vt 0.1554 0.7015 0.0000
vt 0.1554 0.7029 0.0000
vt 0.1479 0.7015 0.0000
vt 0.1479 0.7029 0.0000
# 143 texture coords

g cacciavite
usemtl _sediawire_138008110
s 1
f 1/1/1 2/2/2 3/3/3 4/4/4 
f 4/5/4 3/6/3 5/7/5 6/8/6 
f 6/8/6 5/7/5 7/9/7 8/10/8 
f 8/10/8 7/9/7 9/11/9 10/12/10 
f 10/12/10 9/11/9 11/13/11 12/14/12 
f 12/14/12 11/13/11 13/15/13 14/16/14 
f 14/16/14 13/15/13 15/17/15 16/18/16 
f 16/18/16 15/17/15 2/2/2 1/1/1 
f 2/2/2 17/19/17 18/20/18 3/3/3 
f 3/6/3 18/21/18 19/22/19 5/7/5 
f 5/7/5 19/22/19 20/23/20 7/9/7 
f 7/9/7 20/23/20 21/24/21 9/11/9 
f 9/11/9 21/24/21 22/25/22 11/13/11 
f 11/13/11 22/25/22 23/26/23 13/15/13 
f 13/15/13 23/26/23 24/27/24 15/17/15 
f 15/17/15 24/27/24 17/19/17 2/2/2 
f 17/28/17 25/29/25 26/30/26 18/31/18 
f 18/31/18 26/30/26 27/32/27 19/33/19 
f 19/33/19 27/32/27 28/34/28 20/35/20 
f 20/35/20 28/34/28 29/36/29 21/37/21 
f 21/37/21 29/36/29 30/38/30 22/39/22 
f 22/39/22 30/38/30 31/40/31 23/41/23 
f 23/41/23 31/40/31 32/42/32 24/43/24 
f 24/43/24 32/42/32 25/29/25 17/28/17 
f 25/29/25 33/44/33 34/45/34 26/30/26 
f 26/30/26 34/45/34 35/46/35 27/32/27 
f 27/32/27 35/46/35 36/47/36 28/34/28 
f 28/34/28 36/47/36 37/48/37 29/36/29 
f 29/36/29 37/48/37 38/49/38 30/38/30 
f 30/38/30 38/49/38 39/50/39 31/40/31 
f 31/40/31 39/50/39 40/51/40 32/42/32 
f 32/42/32 40/51/40 33/44/33 25/29/25 
f 33/44/33 41/52/41 35/46/35 34/45/34 
f 1/53/1 4/54/4 42/55/42 43/56/43 
f 4/57/4 6/58/6 44/59/44 42/60/42 
f 6/58/6 8/61/8 45/62/45 44/59/44 
f 8/61/8 10/63/10 46/64/46 45/62/45 
f 10/63/10 12/65/12 47/66/47 46/64/46 
f 12/65/12 14/67/14 48/68/48 47/66/47 
f 14/67/14 16/69/16 49/70/49 48/68/48 
f 16/69/16 1/53/1 43/56/43 49/70/49 
f 43/56/43 42/55/42 50/71/50 51/72/51 
f 42/60/42 44/59/44 52/73/52 50/74/50 
f 44/59/44 45/62/45 53/75/53 52/73/52 
f 45/62/45 46/64/46 54/76/54 53/75/53 
f 46/64/46 47/66/47 55/77/55 54/76/54 
f 47/66/47 48/68/48 56/78/56 55/77/55 
f 48/68/48 49/70/49 57/79/57 56/78/56 
f 49/70/49 43/56/43 51/72/51 57/79/57 
f 51/72/51 50/71/50 58/80/58 59/81/59 
f 50/74/50 52/73/52 60/82/60 58/83/58 
f 52/73/52 53/75/53 61/84/61 60/82/60 
f 53/75/53 54/76/54 62/85/62 61/84/61 
f 54/76/54 55/77/55 63/86/63 62/85/62 
f 55/77/55 56/78/56 64/87/64 63/86/63 
f 56/78/56 57/79/57 65/88/65 64/87/64 
f 57/79/57 51/72/51 59/81/59 65/88/65 
f 66/89/66 64/90/64 65/91/65 59/92/59 
f 62/93/62 63/94/63 64/90/64 66/89/66 
f 59/92/59 58/95/58 60/96/60 66/89/66 
f 66/89/66 60/96/60 61/97/61 62/93/62 
f 33/44/33 40/51/40 39/50/39 41/52/41 
f 39/50/39 38/49/38 37/48/37 41/52/41 
f 41/52/41 37/48/37 36/47/36 35/46/35 
f 67/98/67 68/99/68 69/100/69 70/101/70 
f 68/102/68 71/103/71 72/104/72 69/105/69 
f 71/103/71 73/106/73 74/107/74 72/104/72 
f 73/106/73 75/108/75 76/109/76 74/107/74 
f 75/108/75 77/110/77 78/111/78 76/109/76 
f 77/110/77 67/98/67 70/101/70 78/111/78 
f 70/101/70 69/100/69 79/112/79 80/113/80 
f 69/105/69 72/104/72 81/114/81 79/115/79 
f 72/104/72 74/107/74 82/116/82 81/114/81 
f 74/107/74 76/109/76 83/117/83 82/116/82 
f 76/109/76 78/111/78 84/118/84 83/117/83 
f 78/111/78 70/101/70 80/113/80 84/118/84 
f 80/119/85 79/120/86 85/121/87 86/122/88 
f 79/120/86 81/123/89 87/124/90 85/121/87 
f 81/123/89 82/125/91 88/126/92 87/124/90 
f 82/125/91 83/123/93 89/124/94 90/126/95 
f 83/123/93 84/120/96 91/121/97 89/124/94 
f 84/120/96 80/119/85 92/122/98 91/121/97 
f 85/121/87 93/127/99 94/128/100 86/122/88 
f 87/124/90 95/129/101 93/127/99 85/121/87 
f 88/126/92 96/130/102 95/129/101 87/124/90 
f 89/124/94 97/129/103 98/130/104 90/126/95 
f 91/121/97 99/127/105 97/129/103 89/124/94 
f 92/122/98 100/128/106 99/127/105 91/121/97 
f 92/131/98 80/132/85 86/133/88 
f 88/133/92 82/132/91 90/131/95 
f 92/131/98 86/133/88 94/134/100 100/135/106 
f 88/133/92 90/131/95 98/135/104 96/134/102 
f 97/136/103 99/137/105 93/138/99 95/139/101 
f 99/137/105 100/140/106 94/141/100 93/138/99 
f 98/142/104 97/136/103 95/139/101 96/143/102 
# 93 polygons - 2 triangles

