# 3ds Max Wavefront OBJ Exporter v0.97b - (c)2007 guruware
# File Created: 12.02.2018 15:26:07

mtllib pannello_solare.mtl

#
# object pannello_solare
#

v  0.6741 0.0845 -0.5000
v  -0.3825 2.3503 -0.5000
v  -0.3825 2.3503 0.5000
v  0.6741 0.0845 0.5000
v  -0.4365 2.3251 0.5000
v  -0.4365 2.3251 -0.5000
v  0.6201 0.0594 -0.5000
v  0.6201 0.0594 0.5000
v  -0.6740 0.0157 0.4006
v  -0.6181 -0.0061 0.4006
v  -0.0333 1.4878 0.4006
v  -0.0719 1.5537 0.4006
v  -0.6181 -0.0061 0.2206
v  -0.0333 1.4878 0.2206
v  -0.6740 0.0157 0.2206
v  -0.0719 1.5537 0.2206
v  -0.6740 0.0157 -0.2620
v  -0.6181 -0.0061 -0.2620
v  -0.0333 1.4878 -0.2620
v  -0.0719 1.5537 -0.2620
v  -0.6181 -0.0061 -0.4420
v  -0.0333 1.4878 -0.4420
v  -0.6740 0.0157 -0.4420
v  -0.0719 1.5537 -0.4420
# 24 vertices

vn 0.6411 0.2990 -0.7068
vn 0.2791 0.7673 -0.5773
vn 0.2791 0.7673 0.5773
vn 0.6411 0.2990 0.7068
vn -0.7673 0.2791 0.5774
vn -0.7673 0.2791 -0.5774
vn -0.6406 -0.2987 -0.7074
vn -0.6406 -0.2987 0.7074
vn -0.6587 0.2579 0.7068
vn 0.6582 -0.2577 0.7074
vn 0.5349 -0.2094 0.8186
vn -0.8073 0.3160 0.4984
vn 0.6582 -0.2577 -0.7074
vn 0.5349 -0.2094 -0.8186
vn -0.6587 0.2579 -0.7068
vn -0.8073 0.3160 -0.4984
# 16 vertex normals

vt 0.9832 0.4549 0.0000
vt 0.9832 0.8290 0.0000
vt 0.8335 0.8290 0.0000
vt 0.8335 0.4549 0.0000
vt 0.9830 0.4458 0.0000
vt 0.8333 0.4458 0.0000
vt 0.8333 0.0717 0.0000
vt 0.9830 0.0717 0.0000
vt 0.8579 0.0110 0.0000
vt 0.4838 0.0110 0.0000
vt 0.4838 0.0199 0.0000
vt 0.8579 0.0199 0.0000
vt 0.3179 0.3838 0.0000
vt 0.4675 0.3838 0.0000
vt 0.4675 0.3919 0.0000
vt 0.3179 0.3919 0.0000
vt 0.4602 0.0600 0.0000
vt 0.4692 0.0600 0.0000
vt 0.4673 0.3001 0.0000
vt 0.4583 0.3071 0.0000
vt 0.0581 0.2995 0.0000
vt 0.0581 0.5230 0.0000
vt 0.0850 0.5230 0.0000
vt 0.0850 0.2995 0.0000
vt 0.0850 0.3028 0.0000
vt 0.0850 0.5329 0.0000
vt 0.0581 0.5329 0.0000
vt 0.0581 0.3028 0.0000
vt 0.0544 0.5347 0.0000
vt 0.0544 0.7583 0.0000
vt 0.0814 0.7583 0.0000
vt 0.0814 0.5347 0.0000
vt 0.0814 0.5380 0.0000
vt 0.0814 0.7681 0.0000
vt 0.0544 0.7681 0.0000
vt 0.0544 0.5380 0.0000
# 36 texture coords

g pannello_solare
usemtl _sediawire_138008110
s 1
f 1/1/1 2/2/2 3/3/3 4/4/4 
f 5/5/5 6/6/6 7/7/7 8/8/8 
f 7/9/7 6/10/6 2/11/2 1/12/1 
f 6/13/6 5/14/5 3/15/3 2/16/2 
f 5/10/5 8/9/8 4/12/4 3/11/3 
f 9/17/9 10/18/10 11/19/11 12/20/12 
f 13/21/13 14/22/14 11/23/11 10/24/10 
f 15/17/15 16/20/16 14/19/14 13/18/13 
f 9/25/9 12/26/12 16/27/16 15/28/15 
f 17/17/9 18/18/10 19/19/11 20/20/12 
f 21/29/13 22/30/14 19/31/11 18/32/10 
f 23/17/15 24/20/16 22/19/14 21/18/13 
f 17/33/9 20/34/12 24/35/16 23/36/15 
# 13 polygons

