# 3ds Max Wavefront OBJ Exporter v0.97b - (c)2007 guruware
# File Created: 14.02.2018 16:30:33

mtllib scaffale2.mtl

#
# object scaffali001
#

v  -0.2986 1.4540 -1.4943
v  -0.2986 1.4540 -0.0004
v  -0.0018 1.4540 -0.0004
v  -0.0018 1.4540 -1.4943
v  -0.2986 1.4042 -1.4943
v  -0.2986 1.4042 -0.0004
v  -0.2124 1.3792 -1.4943
v  -0.2124 1.3900 -1.5369
v  -0.0018 1.3900 -1.5369
v  -0.0018 1.3792 -1.4943
v  -0.2124 1.4813 -1.4943
v  -0.0018 1.4813 -1.4943
v  -0.0018 1.4707 -1.5369
v  -0.2124 1.4707 -1.5369
v  -0.0018 1.4042 -0.0004
v  -0.0018 1.4042 -1.4943
v  0.2951 1.4540 -1.4943
v  0.2951 1.4540 -0.0004
v  0.2951 1.4042 -0.0004
v  0.2951 1.4042 -1.4943
v  0.2088 1.3792 -1.4943
v  0.2088 1.3900 -1.5369
v  0.2088 1.4813 -1.4943
v  0.2088 1.4707 -1.5369
v  -0.2986 1.4540 1.4936
v  -0.0018 1.4540 1.4936
v  -0.2986 1.4042 1.4936
v  -0.2124 1.3792 1.4936
v  -0.0018 1.3792 1.4936
v  -0.0018 1.3900 1.5361
v  -0.2124 1.3900 1.5361
v  -0.2124 1.4813 1.4936
v  -0.2124 1.4707 1.5361
v  -0.0018 1.4707 1.5361
v  -0.0018 1.4813 1.4936
v  -0.0018 1.4042 1.4936
v  0.2951 1.4540 1.4936
v  0.2951 1.4042 1.4936
v  0.2088 1.3792 1.4936
v  0.2088 1.3900 1.5361
v  0.2088 1.4813 1.4936
v  0.2088 1.4707 1.5361
v  -0.2986 2.0141 -1.4943
v  -0.2986 2.0141 -0.0004
v  -0.0018 2.0141 -0.0004
v  -0.0018 2.0141 -1.4943
v  -0.2986 1.9643 -1.4943
v  -0.2986 1.9643 -0.0004
v  -0.2124 1.9394 -1.4943
v  -0.2124 1.9501 -1.5369
v  -0.0018 1.9501 -1.5369
v  -0.0018 1.9394 -1.4943
v  -0.2124 2.0414 -1.4943
v  -0.0018 2.0414 -1.4943
v  -0.0018 2.0307 -1.5369
v  -0.2124 2.0307 -1.5369
v  -0.0018 1.9643 -0.0004
v  -0.0018 1.9643 -1.4943
v  0.2951 2.0141 -1.4943
v  0.2951 2.0141 -0.0004
v  0.2951 1.9643 -0.0004
v  0.2951 1.9643 -1.4943
v  0.2088 1.9394 -1.4943
v  0.2088 1.9501 -1.5369
v  0.2088 2.0414 -1.4943
v  0.2088 2.0307 -1.5369
v  -0.2986 2.0141 1.4936
v  -0.0018 2.0141 1.4936
v  -0.2986 1.9643 1.4936
v  -0.2124 1.9394 1.4936
v  -0.0018 1.9394 1.4936
v  -0.0018 1.9501 1.5361
v  -0.2124 1.9501 1.5361
v  -0.2124 2.0414 1.4936
v  -0.2124 2.0307 1.5361
v  -0.0018 2.0307 1.5361
v  -0.0018 2.0414 1.4936
v  -0.0018 1.9643 1.4936
v  0.2951 2.0141 1.4936
v  0.2951 1.9643 1.4936
v  0.2088 1.9394 1.4936
v  0.2088 1.9501 1.5361
v  0.2088 2.0414 1.4936
v  0.2088 2.0307 1.5361
v  -0.2986 2.5742 -1.4943
v  -0.2986 2.5742 -0.0004
v  -0.0018 2.5742 -0.0004
v  -0.0018 2.5742 -1.4943
v  -0.2986 2.5244 -1.4943
v  -0.2986 2.5244 -0.0004
v  -0.2124 2.4995 -1.4943
v  -0.2124 2.5101 -1.5369
v  -0.0018 2.5101 -1.5369
v  -0.0018 2.4995 -1.4943
v  -0.2124 2.6016 -1.4943
v  -0.0018 2.6016 -1.4943
v  -0.0018 2.5908 -1.5369
v  -0.2124 2.5908 -1.5369
v  -0.0018 2.5244 -0.0004
v  -0.0018 2.5244 -1.4943
v  0.2951 2.5742 -1.4943
v  0.2951 2.5742 -0.0004
v  0.2951 2.5244 -0.0004
v  0.2951 2.5244 -1.4943
v  0.2088 2.4995 -1.4943
v  0.2088 2.5101 -1.5369
v  0.2088 2.6016 -1.4943
v  0.2088 2.5908 -1.5369
v  -0.2986 2.5742 1.4936
v  -0.0018 2.5742 1.4936
v  -0.2986 2.5244 1.4936
v  -0.2124 2.4995 1.4936
v  -0.0018 2.4995 1.4936
v  -0.0018 2.5101 1.5361
v  -0.2124 2.5101 1.5361
v  -0.2124 2.6016 1.4936
v  -0.2124 2.5908 1.5361
v  -0.0018 2.5908 1.5361
v  -0.0018 2.6016 1.4936
v  -0.0018 2.5244 1.4936
v  0.2951 2.5742 1.4936
v  0.2951 2.5244 1.4936
v  0.2088 2.4995 1.4936
v  0.2088 2.5101 1.5361
v  0.2088 2.6016 1.4936
v  0.2088 2.5908 1.5361
v  -0.2986 3.1343 -1.4943
v  -0.2986 3.1343 -0.0004
v  -0.0018 3.1343 -0.0004
v  -0.0018 3.1343 -1.4943
v  -0.2986 3.0845 -1.4943
v  -0.2986 3.0845 -0.0004
v  -0.2124 3.0596 -1.4943
v  -0.2124 3.0703 -1.5369
v  -0.0018 3.0703 -1.5369
v  -0.0018 3.0596 -1.4943
v  -0.2124 3.1617 -1.4943
v  -0.0018 3.1617 -1.4943
v  -0.0018 3.1509 -1.5369
v  -0.2124 3.1509 -1.5369
v  -0.0018 3.0845 -0.0004
v  -0.0018 3.0845 -1.4943
v  0.2951 3.1343 -1.4943
v  0.2951 3.1343 -0.0004
v  0.2951 3.0845 -0.0004
v  0.2951 3.0845 -1.4943
v  0.2088 3.0596 -1.4943
v  0.2088 3.0703 -1.5369
v  0.2088 3.1617 -1.4943
v  0.2088 3.1509 -1.5369
v  -0.2986 3.1343 1.4936
v  -0.0018 3.1343 1.4936
v  -0.2986 3.0845 1.4936
v  -0.2124 3.0596 1.4936
v  -0.0018 3.0596 1.4936
v  -0.0018 3.0703 1.5361
v  -0.2124 3.0703 1.5361
v  -0.2124 3.1617 1.4936
v  -0.2124 3.1509 1.5361
v  -0.0018 3.1509 1.5361
v  -0.0018 3.1617 1.4936
v  -0.0018 3.0845 1.4936
v  0.2951 3.1343 1.4936
v  0.2951 3.0845 1.4936
v  0.2088 3.0596 1.4936
v  0.2088 3.0703 1.5361
v  0.2088 3.1617 1.4936
v  0.2088 3.1509 1.5361
v  -0.3504 3.1617 -1.3902
v  -0.3357 3.1617 -1.5295
v  -0.3357 0.1153 -1.5295
v  -0.3504 0.1153 -1.3902
v  -0.2124 0.1153 -1.5441
v  -0.2124 3.1617 -1.5441
v  -0.3006 0.1153 -1.3902
v  -0.3006 0.1153 -1.4943
v  -0.3006 3.1617 -1.4943
v  -0.3006 3.1617 -1.3902
v  -0.2124 0.1153 -1.4943
v  0.3468 3.1617 -1.3902
v  0.3468 0.1153 -1.3902
v  0.3322 0.1153 -1.5295
v  0.3322 3.1617 -1.5295
v  0.2088 0.1153 -1.5441
v  0.2088 3.1617 -1.5441
v  0.2970 0.1153 -1.3902
v  0.2970 3.1617 -1.3902
v  0.2970 3.1617 -1.4943
v  0.2970 0.1153 -1.4943
v  0.2088 0.1153 -1.4943
v  -0.3504 3.1617 1.3894
v  -0.3504 0.1153 1.3894
v  -0.3357 0.1153 1.5287
v  -0.3357 3.1617 1.5287
v  -0.2124 0.1153 1.5434
v  -0.2124 3.1617 1.5434
v  -0.3006 0.1153 1.3894
v  -0.3006 3.1617 1.3894
v  -0.3006 3.1617 1.4936
v  -0.3006 0.1153 1.4936
v  -0.2124 0.1153 1.4936
v  0.3468 3.1617 1.3894
v  0.3322 3.1617 1.5287
v  0.3322 0.1153 1.5287
v  0.3468 0.1153 1.3894
v  0.2088 0.1153 1.5434
v  0.2088 3.1617 1.5434
v  0.2970 0.1153 1.3894
v  0.2970 0.1153 1.4936
v  0.2970 3.1617 1.4936
v  0.2970 3.1617 1.3894
v  0.2088 0.1153 1.4936
v  -0.2986 0.7895 -1.4943
v  -0.2986 0.7895 -0.0004
v  -0.0018 0.7895 -0.0004
v  -0.0018 0.7895 -1.4943
v  -0.2986 0.7397 -1.4943
v  -0.2986 0.7397 -0.0004
v  -0.2124 0.7147 -1.4943
v  -0.2124 0.7255 -1.5369
v  -0.0018 0.7255 -1.5369
v  -0.0018 0.7147 -1.4943
v  -0.2124 0.8168 -1.4943
v  -0.0018 0.8168 -1.4943
v  -0.0018 0.8062 -1.5369
v  -0.2124 0.8062 -1.5369
v  -0.0018 0.7397 -0.0004
v  -0.0018 0.7397 -1.4943
v  0.2951 0.7895 -1.4943
v  0.2951 0.7895 -0.0004
v  0.2951 0.7397 -0.0004
v  0.2951 0.7397 -1.4943
v  0.2088 0.7147 -1.4943
v  0.2088 0.7255 -1.5369
v  0.2088 0.8168 -1.4943
v  0.2088 0.8062 -1.5369
v  -0.2986 0.7895 1.4936
v  -0.0018 0.7895 1.4936
v  -0.2986 0.7397 1.4936
v  -0.2124 0.7147 1.4936
v  -0.0018 0.7147 1.4936
v  -0.0018 0.7255 1.5361
v  -0.2124 0.7255 1.5361
v  -0.2124 0.8168 1.4936
v  -0.2124 0.8062 1.5361
v  -0.0018 0.8062 1.5361
v  -0.0018 0.8168 1.4936
v  -0.0018 0.7397 1.4936
v  0.2951 0.7895 1.4936
v  0.2951 0.7397 1.4936
v  0.2088 0.7147 1.4936
v  0.2088 0.7255 1.5361
v  0.2088 0.8168 1.4936
v  0.2088 0.8062 1.5361
# 254 vertices

vn -0.7071 0.7071 0.0000
vn 0.0000 1.0000 0.0000
vn -0.7071 -0.7071 -0.0000
vn 0.0000 -0.7889 0.6145
vn 0.0000 -0.6145 -0.7889
vn 0.0000 0.7882 0.6154
vn 0.0000 0.6154 -0.7882
vn 0.0000 -1.0000 -0.0000
vn 0.7071 0.7071 0.0000
vn 0.7071 -0.7071 -0.0000
vn 0.0000 -0.7891 -0.6143
vn 0.0000 -0.6143 0.7891
vn 0.0000 0.7884 -0.6152
vn 0.0000 0.6152 0.7884
vn 0.0000 0.7889 0.6145
vn 0.0000 0.6145 -0.7889
vn 0.0000 0.7891 -0.6143
vn 0.0000 0.6143 0.7891
vn 0.0000 -0.7882 0.6154
vn 0.0000 -0.6154 -0.7882
vn 0.0000 -0.7884 -0.6152
vn 0.0000 -0.6152 0.7884
vn -0.6095 0.5720 0.5488
vn -0.5746 0.5899 -0.5673
vn -0.7116 0.0000 -0.7026
vn -0.7431 -0.0000 0.6691
vn 0.6644 0.0000 -0.7474
vn 0.5452 0.5714 -0.6133
vn 0.7071 -0.0000 0.7071
vn 0.3015 0.9045 0.3015
vn 0.5774 0.5774 0.5774
vn 0.6093 0.5721 0.5490
vn 0.7429 -0.0000 0.6694
vn 0.7118 0.0000 -0.7024
vn 0.5748 0.5899 -0.5672
vn -0.6644 0.0000 -0.7473
vn -0.5453 0.5714 -0.6133
vn -0.7071 -0.0000 0.7071
vn -0.5774 0.5774 0.5774
vn -0.3015 0.9045 0.3015
vn -0.6095 0.5720 -0.5488
vn -0.7431 0.0000 -0.6691
vn -0.7119 -0.0000 0.7023
vn -0.5748 0.5900 0.5671
vn 0.6641 -0.0000 0.7476
vn 0.5450 0.5714 0.6136
vn 0.7071 0.0000 -0.7071
vn 0.5774 0.5774 -0.5774
vn 0.3015 0.9045 -0.3015
vn 0.6093 0.5721 -0.5490
vn 0.5750 0.5899 0.5669
vn 0.7121 -0.0000 0.7021
vn 0.7429 0.0000 -0.6694
vn -0.6641 -0.0000 0.7476
vn -0.5451 0.5714 0.6135
vn -0.7071 0.0000 -0.7071
vn -0.3015 0.9045 -0.3015
vn -0.5774 0.5774 -0.5774
# 58 vertex normals

vt 0.0299 0.9270 0.0000
vt 0.0299 0.6857 0.0000
vt 0.0780 0.6849 0.0000
vt 0.0780 0.9270 0.0000
vt 0.4206 0.5424 0.0000
vt 0.1792 0.5424 0.0000
vt 0.1792 0.5344 0.0000
vt 0.4206 0.5344 0.0000
vt 0.0090 0.9450 0.0000
vt 0.0090 0.9519 0.0000
vt 0.0428 0.9519 0.0000
vt 0.0428 0.9450 0.0000
vt 0.0432 0.9857 0.0000
vt 0.0095 0.9857 0.0000
vt 0.0095 0.9692 0.0000
vt 0.0432 0.9692 0.0000
vt 0.0430 0.9657 0.0000
vt 0.0091 0.9657 0.0000
vt 0.0091 0.9525 0.0000
vt 0.0430 0.9525 0.0000
vt 0.0300 0.6856 0.0000
vt 0.0781 0.6864 0.0000
vt 0.0781 0.9277 0.0000
vt 0.0300 0.9277 0.0000
vt 0.1272 0.9271 0.0000
vt 0.0791 0.9271 0.0000
vt 0.0791 0.6850 0.0000
vt 0.1272 0.6857 0.0000
vt 0.5298 0.6385 0.0000
vt 0.5298 0.6614 0.0000
vt 0.0302 0.6614 0.0000
vt 0.0302 0.6385 0.0000
vt 0.0546 0.9304 0.0000
vt 0.0546 0.9504 0.0000
vt 0.5467 0.9504 0.0000
vt 0.5467 0.9304 0.0000
vt 0.9934 0.0045 0.0000
vt 0.9765 0.0045 0.0000
vt 0.9765 0.4982 0.0000
vt 0.9934 0.4982 0.0000
vt 0.9921 0.9951 0.0000
vt 0.9778 0.9951 0.0000
vt 0.9778 0.5012 0.0000
vt 0.9921 0.5012 0.0000
vt 0.9697 0.9951 0.0000
vt 0.9697 0.5012 0.0000
vt 0.6245 0.6179 0.0000
vt 0.6188 0.6122 0.0000
vt 0.6414 0.6099 0.0000
vt 0.6414 0.6179 0.0000
vt 0.6245 0.6323 0.0000
vt 0.6164 0.6323 0.0000
vt 0.0518 0.9883 0.0000
vt 0.0518 0.9802 0.0000
vt 0.5455 0.9802 0.0000
vt 0.5455 0.9883 0.0000
vt 0.5185 0.6826 0.0000
vt 0.0306 0.6826 0.0000
vt 0.0306 0.6628 0.0000
vt 0.5185 0.6628 0.0000
vt 0.0071 0.6289 0.0000
vt 0.0071 0.1350 0.0000
vt 0.0151 0.1350 0.0000
vt 0.0151 0.6289 0.0000
vt 0.6427 0.6278 0.0000
vt 0.6259 0.6278 0.0000
vt 0.6259 0.6198 0.0000
vt 0.6484 0.6220 0.0000
vt 0.6427 0.6421 0.0000
vt 0.6508 0.6421 0.0000
vt 0.9684 0.4982 0.0000
vt 0.9684 0.0045 0.0000
vt 0.5468 0.9769 0.0000
vt 0.0489 0.9769 0.0000
vt 0.0489 0.9541 0.0000
vt 0.5468 0.9541 0.0000
vt 0.4766 0.8478 0.0000
vt 0.9645 0.8478 0.0000
vt 0.9645 0.8675 0.0000
vt 0.4766 0.8675 0.0000
vt 0.0301 0.6612 0.0000
vt 0.0301 0.6384 0.0000
vt 0.5297 0.6384 0.0000
vt 0.5297 0.6612 0.0000
vt 0.0546 0.9509 0.0000
vt 0.0546 0.9310 0.0000
vt 0.5467 0.9310 0.0000
vt 0.5467 0.9509 0.0000
# 88 texture coords

g scaffali001
usemtl Material__45
s 1
f 1/1/1 2/2/1 3/3/2 4/4/2 
f 2/5/1 1/6/1 5/7/3 6/8/3 
f 7/9/4 8/10/5 9/11/5 10/12/4 
f 11/9/6 12/12/6 13/11/7 14/10/7 
f 12/13/6 11/14/6 7/15/4 10/16/4 
f 14/17/7 13/18/7 9/19/5 8/20/5 
f 15/21/8 6/22/3 5/23/3 16/24/8 
f 17/25/9 4/26/2 3/27/2 18/28/9 
f 18/8/9 19/5/10 20/6/10 17/7/9 
f 21/9/4 10/12/4 9/11/5 22/10/5 
f 23/12/6 24/11/7 13/10/7 12/9/6 
f 12/14/6 10/15/4 21/16/4 23/13/6 
f 24/18/7 22/19/5 9/20/5 13/17/7 
f 15/3/8 16/4/8 20/1/10 19/2/10 
f 25/25/1 26/26/2 3/27/2 2/28/1 
f 2/8/1 6/5/3 27/6/3 25/7/1 
f 28/9/11 29/12/11 30/11/12 31/10/12 
f 32/12/13 33/11/14 34/10/14 35/9/13 
f 35/14/13 29/15/11 28/16/11 32/13/13 
f 33/18/14 31/19/12 30/20/12 34/17/14 
f 15/3/8 36/4/8 27/1/3 6/2/3 
f 37/1/9 18/2/9 3/3/2 26/4/2 
f 18/5/9 37/6/9 38/7/10 19/8/10 
f 39/9/11 40/10/12 30/11/12 29/12/11 
f 41/9/13 35/12/13 34/11/14 42/10/14 
f 35/13/13 41/14/13 39/15/11 29/16/11 
f 42/17/14 34/18/14 30/19/12 40/20/12 
f 15/21/8 19/22/10 38/23/10 36/24/8 
f 43/1/1 44/2/1 45/3/2 46/4/2 
f 44/5/1 43/6/1 47/7/3 48/8/3 
f 49/9/4 50/10/5 51/11/5 52/12/4 
f 53/9/15 54/12/15 55/11/16 56/10/16 
f 54/13/15 53/14/15 49/15/4 52/16/4 
f 56/17/16 55/18/16 51/19/5 50/20/5 
f 57/21/8 48/22/3 47/23/3 58/24/8 
f 59/25/9 46/26/2 45/27/2 60/28/9 
f 60/8/9 61/5/10 62/6/10 59/7/9 
f 63/9/4 52/12/4 51/11/5 64/10/5 
f 65/12/15 66/11/16 55/10/16 54/9/15 
f 54/14/15 52/15/4 63/16/4 65/13/15 
f 66/18/16 64/19/5 51/20/5 55/17/16 
f 57/3/8 58/4/8 62/1/10 61/2/10 
f 67/25/1 68/26/2 45/27/2 44/28/1 
f 44/8/1 48/5/3 69/6/3 67/7/1 
f 70/9/11 71/12/11 72/11/12 73/10/12 
f 74/12/17 75/11/18 76/10/18 77/9/17 
f 77/14/17 71/15/11 70/16/11 74/13/17 
f 75/18/18 73/19/12 72/20/12 76/17/18 
f 57/3/8 78/4/8 69/1/3 48/2/3 
f 79/1/9 60/2/9 45/3/2 68/4/2 
f 60/5/9 79/6/9 80/7/10 61/8/10 
f 81/9/11 82/10/12 72/11/12 71/12/11 
f 83/9/17 77/12/17 76/11/18 84/10/18 
f 77/13/17 83/14/17 81/15/11 71/16/11 
f 84/17/18 76/18/18 72/19/12 82/20/12 
f 57/21/8 61/22/10 80/23/10 78/24/8 
f 85/1/1 86/2/1 87/3/2 88/4/2 
f 86/5/1 85/6/1 89/7/3 90/8/3 
f 91/9/19 92/10/20 93/11/20 94/12/19 
f 95/9/15 96/12/15 97/11/16 98/10/16 
f 96/13/15 95/14/15 91/15/19 94/16/19 
f 98/17/16 97/18/16 93/19/20 92/20/20 
f 99/21/8 90/22/3 89/23/3 100/24/8 
f 101/25/9 88/26/2 87/27/2 102/28/9 
f 102/8/9 103/5/10 104/6/10 101/7/9 
f 105/9/19 94/12/19 93/11/20 106/10/20 
f 107/12/15 108/11/16 97/10/16 96/9/15 
f 96/14/15 94/15/19 105/16/19 107/13/15 
f 108/18/16 106/19/20 93/20/20 97/17/16 
f 99/3/8 100/4/8 104/1/10 103/2/10 
f 109/25/1 110/26/2 87/27/2 86/28/1 
f 86/8/1 90/5/3 111/6/3 109/7/1 
f 112/9/21 113/12/21 114/11/22 115/10/22 
f 116/12/17 117/11/18 118/10/18 119/9/17 
f 119/14/17 113/15/21 112/16/21 116/13/17 
f 117/18/18 115/19/22 114/20/22 118/17/18 
f 99/3/8 120/4/8 111/1/3 90/2/3 
f 121/1/9 102/2/9 87/3/2 110/4/2 
f 102/5/9 121/6/9 122/7/10 103/8/10 
f 123/9/21 124/10/22 114/11/22 113/12/21 
f 125/9/17 119/12/17 118/11/18 126/10/18 
f 119/13/17 125/14/17 123/15/21 113/16/21 
f 126/17/18 118/18/18 114/19/22 124/20/22 
f 99/21/8 103/22/10 122/23/10 120/24/8 
f 127/1/1 128/2/1 129/3/2 130/4/2 
f 128/5/1 127/6/1 131/7/3 132/8/3 
f 133/9/19 134/10/20 135/11/20 136/12/19 
f 137/9/15 138/12/15 139/11/16 140/10/16 
f 138/13/15 137/14/15 133/15/19 136/16/19 
f 140/17/16 139/18/16 135/19/20 134/20/20 
f 141/21/8 132/22/3 131/23/3 142/24/8 
f 143/25/9 130/26/2 129/27/2 144/28/9 
f 144/8/9 145/5/10 146/6/10 143/7/9 
f 147/9/19 136/12/19 135/11/20 148/10/20 
f 149/12/15 150/11/16 139/10/16 138/9/15 
f 138/14/15 136/15/19 147/16/19 149/13/15 
f 150/18/16 148/19/20 135/20/20 139/17/16 
f 141/3/8 142/4/8 146/1/10 145/2/10 
f 151/25/1 152/26/2 129/27/2 128/28/1 
f 128/8/1 132/5/3 153/6/3 151/7/1 
f 154/9/21 155/12/21 156/11/22 157/10/22 
f 158/12/17 159/11/18 160/10/18 161/9/17 
f 161/14/17 155/15/21 154/16/21 158/13/17 
f 159/18/18 157/19/22 156/20/22 160/17/18 
f 141/3/8 162/4/8 153/1/3 132/2/3 
f 163/1/9 144/2/9 129/3/2 152/4/2 
f 144/5/9 163/6/9 164/7/10 145/8/10 
f 165/9/21 166/10/22 156/11/22 155/12/21 
f 167/9/17 161/12/17 160/11/18 168/10/18 
f 161/13/17 167/14/17 165/15/21 155/16/21 
f 168/17/18 160/18/18 156/19/22 166/20/22 
f 141/21/8 145/22/10 164/23/10 162/24/8 
f 169/29/23 170/30/24 171/31/25 172/32/26 
f 173/33/27 171/34/25 170/35/24 174/36/28 
f 175/37/29 176/38/29 177/39/30 178/40/31 
f 137/41/31 177/42/30 176/43/29 179/44/29 
f 178/42/31 169/45/23 172/46/26 175/43/29 
f 177/47/30 170/48/24 169/49/23 178/50/31 
f 137/51/31 174/52/28 170/48/24 177/47/30 
f 179/53/29 173/54/27 174/55/28 137/56/31 
f 180/32/32 181/29/33 182/30/34 183/31/35 
f 184/57/36 185/58/37 183/59/35 182/60/34 
f 186/37/38 187/40/39 188/39/40 189/38/38 
f 149/44/39 190/41/38 189/42/38 188/43/40 
f 187/61/39 186/62/38 181/63/33 180/64/32 
f 188/65/40 187/66/39 180/67/32 183/68/35 
f 149/69/39 188/65/40 183/68/35 185/70/37 
f 190/38/38 149/39/39 185/71/37 184/72/36 
f 191/73/41 192/74/42 193/75/43 194/76/44 
f 195/77/45 196/78/46 194/79/44 193/80/43 
f 197/37/47 198/40/48 199/39/49 200/38/47 
f 158/44/48 201/41/47 200/42/47 199/43/49 
f 198/61/48 197/62/47 192/63/42 191/64/41 
f 199/65/49 198/66/48 191/67/41 194/68/44 
f 158/69/48 199/65/49 194/68/44 196/70/46 
f 201/38/47 158/39/48 196/71/46 195/72/45 
f 202/81/50 203/82/51 204/83/52 205/84/53 
f 206/85/54 204/86/52 203/87/51 207/88/55 
f 208/40/56 209/39/56 210/38/57 211/37/58 
f 167/41/58 210/42/57 209/43/56 212/44/56 
f 211/42/58 202/45/50 205/46/53 208/43/56 
f 210/47/57 203/48/51 202/49/50 211/50/58 
f 167/51/58 207/52/55 203/48/51 210/47/57 
f 212/53/56 206/54/54 207/55/55 167/56/58 
f 213/1/1 214/2/1 215/3/2 216/4/2 
f 214/5/1 213/6/1 217/7/3 218/8/3 
f 219/9/4 220/10/5 221/11/5 222/12/4 
f 223/9/6 224/12/6 225/11/7 226/10/7 
f 224/13/6 223/14/6 219/15/4 222/16/4 
f 226/17/7 225/18/7 221/19/5 220/20/5 
f 227/21/8 218/22/3 217/23/3 228/24/8 
f 229/25/9 216/26/2 215/27/2 230/28/9 
f 230/8/9 231/5/10 232/6/10 229/7/9 
f 233/9/4 222/12/4 221/11/5 234/10/5 
f 235/12/6 236/11/7 225/10/7 224/9/6 
f 224/14/6 222/15/4 233/16/4 235/13/6 
f 236/18/7 234/19/5 221/20/5 225/17/7 
f 227/3/8 228/4/8 232/1/10 231/2/10 
f 237/25/1 238/26/2 215/27/2 214/28/1 
f 214/8/1 218/5/3 239/6/3 237/7/1 
f 240/9/11 241/12/11 242/11/12 243/10/12 
f 244/12/13 245/11/14 246/10/14 247/9/13 
f 247/14/13 241/15/11 240/16/11 244/13/13 
f 245/18/14 243/19/12 242/20/12 246/17/14 
f 227/3/8 248/4/8 239/1/3 218/2/3 
f 249/1/9 230/2/9 215/3/2 238/4/2 
f 230/5/9 249/6/9 250/7/10 231/8/10 
f 251/9/11 252/10/12 242/11/12 241/12/11 
f 253/9/13 247/12/13 246/11/14 254/10/14 
f 247/13/13 253/14/13 251/15/11 241/16/11 
f 254/17/14 246/18/14 242/19/12 252/20/12 
f 227/21/8 231/22/10 250/23/10 248/24/8 
# 172 polygons

